<svg width="29" height="22" viewBox="0 0 29 22" xmlns="http://www.w3.org/2000/svg">
<path d="M28.5038 10.5228H26.0504C27.0703 8.12738 26.9601 6.18821 26.5741 4.87643C25.9125 2.53802 23.6797 0 20.3717 0C19.4895 0 18.6074 0.171102 17.6977 0.513308C16.1264 1.11217 15.0789 1.76806 14.6103 2.11027C14.1416 1.76806 13.1217 1.11217 11.5228 0.513308C10.6131 0.171102 9.70342 0 8.84886 0C5.54087 0 3.30799 2.53802 2.64639 4.87643C2.26046 6.27376 2.12262 8.38403 3.41825 11.0361H0.441065C0.192966 11.0361 0 11.2357 0 11.4924C0 11.7491 0.192966 11.9487 0.441065 11.9487H3.94202C4.07985 12.2053 4.24525 12.462 4.43821 12.7186C7.30513 16.9962 13.5352 21.6445 14.6654 21.9297V21.9582C14.6654 21.9582 14.693 21.9582 14.7205 21.9297C14.7481 21.9297 14.7757 21.9297 14.8032 21.9297V21.9011C15.7681 21.4163 21.75 17.424 24.8926 12.6901C25.1958 12.2624 25.4439 11.8346 25.6644 11.4068H28.5589C28.807 11.4068 29 11.2072 29 10.9506C29 10.6939 28.7519 10.5228 28.5038 10.5228ZM24.0932 12.2053C21.1711 16.6255 15.7956 20.1901 14.6378 20.9601C13.4525 20.1901 8.10456 16.597 5.15494 12.2053C5.09981 12.1198 5.04468 12.0342 4.98954 11.9487H9.04183C9.20722 11.9487 9.37262 11.8631 9.45532 11.692L11.3023 7.92776L14.1968 15.5989C14.2519 15.77 14.4449 15.884 14.6103 15.884C14.6103 15.884 14.6103 15.884 14.6378 15.884C14.8308 15.884 14.9962 15.7414 15.0513 15.5418L17.5875 6.55893L18.9382 11.0932C18.9933 11.2643 19.1312 11.3783 19.2966 11.4068C19.462 11.4354 19.6274 11.3498 19.7376 11.2072L20.8127 9.58175L21.7224 11.1787C21.8051 11.3213 21.943 11.4068 22.1084 11.4068H24.5894C24.424 11.692 24.2586 11.9487 24.0932 12.2053ZM25.0856 10.5228H22.384L21.2538 8.52662C21.1711 8.38403 21.0333 8.29848 20.8679 8.29848C20.7025 8.29848 20.5646 8.35551 20.4819 8.4981L19.5447 9.92395L18.0285 4.81939C17.9734 4.61977 17.7804 4.5057 17.5875 4.47719C17.3945 4.47719 17.2015 4.61977 17.1464 4.81939L14.5827 13.9734L11.7985 6.61597C11.7433 6.44487 11.5779 6.3308 11.4125 6.3308C11.2196 6.3308 11.0817 6.41635 10.9991 6.58745L8.82129 11.0076H4.43821C3.33555 8.92585 3.03232 6.92966 3.52852 5.13308C4.10741 3.10836 6.00951 0.941064 8.87643 0.941064C9.64829 0.941064 10.4477 1.11217 11.2471 1.39734C13.2595 2.1673 14.3346 3.05133 14.3622 3.05133C14.5276 3.19392 14.7481 3.19392 14.9135 3.05133C14.9135 3.05133 15.9886 2.1673 18.0285 1.39734C18.8279 1.08365 19.6274 0.941064 20.3992 0.941064C23.2386 0.941064 25.1683 3.10836 25.7471 5.13308C26.2158 6.78707 25.9677 8.61217 25.0856 10.5228Z"/>
</svg>
