<svg width="45" height="45" viewBox="0 0 45 45" xmlns="http://www.w3.org/2000/svg">
<path d="M24.9618 44.5482H20.2316C19.5199 44.5482 19.2716 44.5498 16.8464 38.5413L14.9734 37.78C9.87004 40.0953 9.26593 40.0953 9.06397 40.0953H8.67344L8.34043 39.8092L4.98727 36.5285C4.47732 36.0195 4.30061 35.8428 6.92453 29.9129L6.16082 28.106C0 25.8983 0 25.6421 0 24.9146V20.277C0 19.5504 0 19.321 6.1404 16.9467L6.90411 15.1359C4.12851 9.29623 4.31949 9.11491 4.86697 8.59948L8.47302 5.06411L8.92084 5.05006C9.46525 5.05006 11.4851 5.78699 14.9293 7.24109L16.7968 6.48287C19.0451 0.450904 19.321 0.451782 20.0303 0.451782H24.7605C25.4691 0.451782 25.7183 0.45266 28.1435 6.46267L30.0195 7.21848C35.115 4.90628 35.727 4.90628 35.9305 4.90628H36.3187L36.6517 5.18748L40.0048 8.46272C40.5148 8.97727 40.6891 9.15332 38.0651 15.0856L38.8311 16.9028C44.9998 19.1011 44.9998 19.3564 44.9998 20.0854V24.7175C44.9998 25.427 44.9998 25.6768 38.8515 28.0524L38.0926 29.8648C40.8541 35.6792 40.6717 35.8614 40.1548 36.3823L36.5213 39.9396L36.071 39.9522C35.529 39.9522 33.5139 39.2144 30.0744 37.7587L28.196 38.5176C25.9415 44.5482 25.6853 44.5482 24.9618 44.5482ZM20.7233 42.6336H24.4543C24.8823 41.7608 25.8078 39.447 26.5487 37.454L26.698 37.0574L30.0951 35.6856L30.4603 35.8403C32.485 36.7037 34.8779 37.6606 35.8105 37.9545L38.4322 35.3903C38.0992 34.4672 37.0896 32.2086 36.179 30.3034L35.9953 29.9162L37.4009 26.5608L37.7835 26.4131C39.8286 25.6259 42.198 24.654 43.0834 24.2108V20.6085C42.1877 20.1875 39.8277 19.2894 37.7938 18.5683L37.3956 18.4261L35.9808 15.0674L36.1496 14.6887C37.02 12.7247 37.9881 10.4079 38.2983 9.47448L35.6695 6.90478C34.8211 7.20092 32.4452 8.21905 30.4412 9.13357L30.068 9.30479L26.671 7.93543L26.5193 7.55764C25.7163 5.55342 24.7186 3.22958 24.2686 2.36929H20.5402C20.1098 3.23968 19.1873 5.5543 18.4482 7.54666L18.3014 7.94114L14.9137 9.31752L14.5484 9.16123C12.5192 8.29939 10.1214 7.34404 9.1858 7.05032L6.56869 9.61607C6.89709 10.5376 7.90973 12.7947 8.81723 14.6999L9.00338 15.088L7.59077 18.4419L7.21056 18.5887C5.16881 19.375 2.80327 20.3462 1.91772 20.7876V24.3946C2.81336 24.8172 5.17101 25.7176 7.20354 26.4418L7.59867 26.5856L9.0137 29.9331L8.84489 30.3109C7.97449 32.2734 7.00729 34.5871 6.69623 35.5187L9.33046 38.0963C10.1765 37.7978 12.5493 36.7797 14.5557 35.8643L14.9313 35.6922L18.3213 37.0701L18.473 37.4479C19.2784 39.4528 20.2731 41.7726 20.7233 42.6336ZM22.4997 30.2176C18.1622 30.2176 14.6301 26.7553 14.6301 22.4995C14.6301 18.2469 18.1615 14.7869 22.4997 14.7869C26.8347 14.7869 30.3583 18.2476 30.3583 22.4995C30.3583 26.7553 26.8347 30.2176 22.4997 30.2176ZM22.4997 16.7033C19.2165 16.7033 16.5478 19.3037 16.5478 22.4997C16.5478 25.6979 19.2159 28.3007 22.4997 28.3007C25.7773 28.3007 28.4438 25.6979 28.4438 22.4997C28.4429 19.3037 25.7773 16.7033 22.4997 16.7033Z"/>
</svg>
